<svg xmlns="http://www.w3.org/2000/svg" width="1464.368" height="1213.181" viewBox="0 0 1464.368 1213.181">
  <g id="g12" transform="translate(-18.63 1384.122)">
    <path id="path16" d="M750.815-1305.163v-20.04a58.919,58.919,0,0,0-58.919-58.919H77.549A58.92,58.92,0,0,0,18.63-1325.2V-262.777H1483v-983.467a58.92,58.92,0,0,0-58.919-58.919H750.815" fill="#f9df5c"/>
    <path id="path18" d="M1431.677-252H83.638v-968.262H1431.677V-252" fill="#fff"/>
    <path id="path20" d="M729.932-1099.2l-21.739,60.269H77.549A58.92,58.92,0,0,0,18.63-980.009V-229.86a58.92,58.92,0,0,0,58.919,58.919H1424.076A58.92,58.92,0,0,0,1483-229.86V-1079.2a58.92,58.92,0,0,0-58.919-58.919H785.355a58.92,58.92,0,0,0-55.424,38.928" fill="#f3cc30"/>
    <path id="path22" d="M1483-229.861V-718.938C1076.255-323.3,370.747-217.438,35.011-189.164a58.7,58.7,0,0,0,42.537,18.222H1424.076A58.922,58.922,0,0,0,1483-229.861" fill="#edbd31"/>
    <path id="path24" d="M613.3-991.507H115.356a47.576,47.576,0,0,0-47.575,47.578v105.386C151.538-895.925,340.538-968.206,613.3-991.507" fill="#f6d738"/>
  </g>
</svg>
